# xmcd
#
# Track frame offsets:
#	150
#	14627
#	29831
#	47421
#	58459
#	76132
#	87388
#	104038
#	116960
#	143823
#	160962
#	172580
#	186998
#	199438
#	219281
#	229357
#	242548
#	260919
#
# Disc length: 3678 seconds
#
# Revision: 4
# Processed by: cddbd v1.5.1PL0 Copyright (c) Steve Scherf et al.
# Submitted via: audiograbber 1.83.01
#
DISCID=100e5c12
DTITLE=1997-07 Country Radio - 1997-07 Country Radio
DYEAR=1997
DGENRE=Country
TTITLE0=Bryan White - Love Is The Right Place
TTITLE1=Vince Gill - You And You Alone
TTITLE2=Alan Jackson - There Goes
TTITLE3=Caryl Mack Parker - It's Good To Be Me
TTITLE4=Sawyer Brown - This Night Won't Last Forever
TTITLE5=Kevin Sharp - If You Love Somebody
TTITLE6=BlackHawk - Hole In My Heart
TTITLE7=David Lee Murphy - All Lit Up In Love
TTITLE8=Alabama - Dancin', Shaggin' On The Boulevard
TTITLE9=Chely Wright - Shut Up And Drive
TTITLE10=Rich McCready - Let Me Take That Ol' Heartache
TTITLE11=Noel Haggard - Tell Me Something Bad About Tulsa
TTITLE12=Bob Woodruff - Almost Saturday Night
TTITLE13=Trisha Yearwood - How Do I Live
TTITLE14=Jack Ingram - Flutter
TTITLE15=Ryan Reynolds - Do I Ever Cross Your Mind
TTITLE16=Bryan Smith - Texas Twist Her
TTITLE17=Michelle Allen - You Turn My Radio On
EXTD=
EXTT0=
EXTT1=
EXTT2=
EXTT3=
EXTT4=
EXTT5=
EXTT6=
EXTT7=
EXTT8=
EXTT9=
EXTT10=
EXTT11=
EXTT12=
EXTT13=
EXTT14=
EXTT15=
EXTT16=
EXTT17=
PLAYORDER=
